<svg id="visual" viewBox="0 0 900 600" width="900" height="600" xmlns="http://www.w3.org/2000/svg" xmlns:xlink="http://www.w3.org/1999/xlink" version="1.1"><rect x="0" y="0" width="900" height="600" fill="#0f0b14"></rect><path d="M0 390L129 446L257 360L386 391L514 446L643 356L771 362L900 359L900 601L771 601L643 601L514 601L386 601L257 601L129 601L0 601Z" fill="#372f4c"></path><path d="M0 423L129 465L257 412L386 455L514 473L643 480L771 474L900 448L900 601L771 601L643 601L514 601L386 601L257 601L129 601L0 601Z" fill="#332c47"></path><path d="M0 448L129 451L257 493L386 461L514 495L643 504L771 490L900 454L900 601L771 601L643 601L514 601L386 601L257 601L129 601L0 601Z" fill="#2f2942"></path><path d="M0 500L129 539L257 519L386 490L514 522L643 483L771 517L900 537L900 601L771 601L643 601L514 601L386 601L257 601L129 601L0 601Z" fill="#2b263d"></path><path d="M0 544L129 525L257 552L386 561L514 529L643 542L771 546L900 538L900 601L771 601L643 601L514 601L386 601L257 601L129 601L0 601Z" fill="#272338"></path></svg>